<?xml version="1.0" standalone="no"?>
<!DOCTYPE svg PUBLIC "-//W3C//DTD SVG 20010904//EN"
 "http://www.w3.org/TR/2001/REC-SVG-20010904/DTD/svg10.dtd">
<svg version="1.0" xmlns="http://www.w3.org/2000/svg"
 width="1024.000000pt" height="1024.000000pt" viewBox="0 0 1024.000000 1024.000000"
 preserveAspectRatio="xMidYMid meet">

<g transform="translate(0.000000,1024.000000) scale(0.100000,-0.100000)"
fill="#000000" stroke="none">
<path d="M3049 7632 c-223 -231 -311 -418 -326 -687 -12 -229 52 -427 206
-632 66 -88 217 -253 232 -253 14 0 190 205 248 290 73 106 111 181 147 290
27 80 29 95 29 260 0 152 -3 185 -23 253 -50 175 -138 318 -293 481 -56 58
-105 106 -109 106 -4 0 -54 -48 -111 -108z"/>
<path d="M2016 7313 c-83 -328 64 -624 367 -738 37 -14 74 -25 82 -25 38 0 69
243 46 362 -34 173 -159 328 -331 411 -52 25 -107 48 -121 51 -26 6 -27 3 -43
-61z"/>
<path d="M4170 7342 c-303 -130 -438 -398 -369 -734 14 -68 17 -69 119 -32
134 48 229 116 295 209 101 144 125 306 78 518 -17 79 -23 81 -123 39z"/>
<path d="M1614 6821 c-258 -182 -382 -442 -346 -729 14 -106 35 -185 76 -275
l26 -59 37 23 c72 43 144 103 214 177 82 88 151 219 174 327 26 125 17 295
-22 420 -25 81 -65 165 -78 165 -6 0 -43 -22 -81 -49z m145 -114 c46 -141 51
-341 12 -464 -49 -152 -133 -272 -271 -384 -46 -38 -120 -83 -126 -77 -14 14
-65 158 -80 223 -23 105 -23 268 -1 355 23 87 75 191 135 270 63 82 99 116
192 179 l74 52 23 -46 c12 -25 31 -74 42 -108z"/>
<path d="M2084 6460 c-86 -22 -204 -69 -204 -81 0 -19 75 -116 145 -185 206
-206 472 -247 755 -118 l79 37 -42 61 c-72 104 -167 190 -259 235 -46 23 -110
48 -143 56 -82 21 -242 19 -331 -5z m296 0 c73 -16 120 -32 115 -41 -3 -4 0
-11 6 -15 8 -4 9 -3 5 4 -11 18 1 15 66 -20 72 -38 140 -98 195 -170 43 -56
83 -118 68 -105 -4 4 -15 1 -24 -7 -27 -23 -142 -64 -226 -79 -242 -45 -458
46 -635 268 -50 63 -60 85 -38 85 6 0 19 6 27 14 17 14 116 49 186 65 54 12
200 13 255 1z"/>
<path d="M3983 6435 c-334 -61 -568 -283 -628 -598 -16 -83 -20 -221 -8 -302
l6 -47 58 6 c93 11 197 44 294 94 71 36 108 65 175 132 47 47 102 114 123 150
42 73 81 187 97 282 11 69 13 240 4 276 -7 25 -17 26 -121 7z"/>
<path d="M5435 6443 c-189 -23 -319 -59 -455 -128 -271 -136 -469 -379 -555
-680 -31 -107 -53 -271 -40 -284 22 -22 238 -44 375 -38 499 19 886 275 1050
693 38 97 91 285 103 366 l5 36 -46 11 c-113 26 -327 38 -437 24z"/>
<path d="M6261 6221 c-8 -5 -10 -162 -9 -552 l3 -544 350 0 350 0 3 73 c2 46
-2 79 -9 88 -9 11 -56 14 -239 14 -178 0 -230 3 -239 13 -7 10 -12 152 -13
463 l-3 449 -92 1 c-50 1 -96 -2 -102 -5z"/>
<path d="M7117 6210 c-14 -11 -31 -36 -37 -54 -25 -75 26 -136 113 -136 93 1
142 74 105 155 -25 55 -130 75 -181 35z"/>
<path d="M8380 5675 l0 -556 98 3 97 3 0 183 c0 100 2 182 5 181 3 0 72 -83
154 -185 l148 -184 104 0 c59 0 104 4 104 10 0 5 -66 93 -146 197 -80 103
-148 193 -151 199 -3 7 61 91 141 187 80 96 146 177 146 181 0 3 -48 6 -107 5
l-108 0 -140 -160 -140 -160 -5 323 -5 323 -97 3 -98 3 0 -556z"/>
<path d="M2837 5938 c-82 -83 -138 -180 -157 -275 -26 -126 7 -286 83 -406 44
-69 46 -68 142 28 44 44 75 87 105 148 38 76 43 95 47 174 4 61 0 109 -11 157
-18 77 -75 192 -111 226 l-25 23 -73 -75z"/>
<path d="M7805 5907 c-57 -19 -97 -41 -120 -67 l-20 -22 -11 38 -11 39 -89 0
-89 0 0 -385 0 -385 98 -3 97 -3 0 256 c0 298 3 314 72 345 54 25 156 27 204
4 67 -32 71 -57 73 -407 l1 -198 98 3 97 3 3 274 c2 226 0 284 -13 329 -20 68
-78 132 -148 162 -63 28 -183 36 -242 17z"/>
<path d="M7097 5893 c-4 -3 -7 -179 -7 -390 l0 -383 100 0 100 0 0 390 0 390
-93 0 c-52 0 -97 -3 -100 -7z"/>
<path d="M4192 5751 c-141 -59 -252 -174 -288 -299 -20 -68 -14 -213 11 -285
20 -55 22 -55 119 -4 116 61 208 167 240 276 25 84 17 307 -12 332 -4 3 -35
-5 -70 -20z"/>
<path d="M835 5695 c-141 -27 -384 -109 -401 -136 -7 -12 69 -156 133 -251 61
-91 199 -232 281 -287 81 -55 190 -106 272 -128 93 -26 344 -25 455 1 100 23
232 69 307 107 l57 29 -14 40 c-41 117 -125 259 -203 342 -105 113 -300 233
-447 273 -86 24 -335 29 -440 10z"/>
<path d="M3180 5251 c-109 -36 -190 -142 -190 -251 0 -88 63 -190 144 -233 57
-30 165 -30 221 0 87 46 135 128 135 233 0 105 -48 188 -134 232 -43 22 -136
32 -176 19z"/>
<path d="M4198 5147 c-120 -86 -317 -252 -553 -467 -265 -241 -318 -271 -424
-235 -28 9 -132 64 -233 122 -381 219 -925 513 -951 513 -15 0 16 -45 72 -103
30 -32 174 -155 320 -275 312 -256 410 -347 491 -454 65 -86 85 -138 95 -253
11 -123 -20 -411 -71 -660 -63 -309 -139 -424 -352 -533 -99 -51 -366 -157
-422 -168 -16 -4 -30 -9 -30 -13 0 -12 272 -12 350 -1 185 26 453 100 589 161
35 16 67 29 71 29 4 0 20 -19 35 -42 77 -118 170 -196 278 -237 46 -16 147
-34 147 -25 0 2 -22 24 -50 50 -45 42 -110 148 -110 179 0 8 34 1 99 -22 204
-69 426 -104 665 -102 87 0 155 4 150 8 -5 4 -58 22 -119 40 -246 74 -462 170
-539 241 -77 72 -113 184 -161 505 -53 355 -54 516 -4 662 33 97 127 276 208
397 94 141 360 505 464 638 43 55 77 101 75 103 -2 2 -42 -24 -90 -58z"/>
<path d="M4715 5204 c-94 -11 -181 -30 -265 -59 -132 -45 -152 -55 -145 -74
16 -43 106 -190 153 -249 233 -296 630 -380 1042 -221 l80 30 -27 47 c-87 153
-183 272 -287 356 -72 58 -216 130 -301 150 -62 15 -198 25 -250 20z m245 -30
c88 -20 232 -92 312 -158 81 -68 167 -170 236 -283 28 -47 52 -89 52 -92 0 -4
-33 -19 -72 -34 -357 -133 -706 -85 -939 130 -70 65 -128 143 -192 261 l-46
83 47 20 c198 85 422 112 602 73z"/>
<path d="M9615 4898 c-3 -7 -4 -258 -3 -558 l3 -545 70 -3 c39 -1 80 0 93 3
l22 5 -2 553 -3 552 -88 3 c-64 2 -89 -1 -92 -10z"/>
<path d="M6062 4875 c-69 -19 -105 -39 -153 -82 -82 -75 -117 -197 -86 -304
31 -107 112 -168 298 -227 125 -40 185 -68 209 -100 24 -30 26 -91 5 -132 -48
-93 -269 -105 -439 -25 -29 14 -56 25 -59 25 -9 0 -8 -172 1 -187 18 -29 136
-56 263 -61 139 -5 202 7 293 56 128 69 189 227 141 363 -35 99 -104 150 -292
216 -150 52 -194 75 -216 113 -34 57 -9 132 55 167 53 29 201 24 301 -10 112
-39 107 -41 107 57 0 58 -4 87 -14 95 -51 42 -311 65 -414 36z"/>
<path d="M8465 4866 c-60 -26 -73 -109 -26 -157 25 -25 37 -29 81 -29 44 0 56
4 81 29 50 51 37 130 -26 157 -42 17 -71 17 -110 0z"/>
<path d="M4187 4825 c-54 -95 -71 -155 -71 -250 -1 -78 3 -98 27 -149 15 -33
44 -79 63 -103 42 -52 139 -127 152 -119 18 11 60 111 78 185 22 92 11 191
-31 278 -26 54 -162 203 -185 203 -4 0 -20 -20 -33 -45z m82 -12 c64 -54 117
-126 141 -190 43 -116 18 -299 -56 -401 -7 -11 -69 36 -117 89 -99 109 -132
217 -103 343 16 67 72 196 85 196 4 0 27 -17 50 -37z"/>
<path d="M1820 4822 c-206 -54 -332 -217 -356 -462 l-7 -70 74 0 c148 1 277
45 367 125 88 79 151 235 152 373 l0 52 -82 -1 c-46 0 -112 -8 -148 -17z"/>
<path d="M6975 4576 c-120 -29 -234 -125 -276 -234 -33 -83 -33 -243 -1 -324
32 -80 107 -160 189 -200 58 -28 79 -33 164 -36 118 -5 207 18 282 73 155 115
201 346 105 528 -84 157 -278 238 -463 193z m190 -175 c115 -52 160 -218 94
-347 -82 -160 -320 -138 -378 35 -16 49 -14 155 5 199 45 110 173 161 279 113z"/>
<path d="M7902 4575 c-191 -54 -295 -195 -295 -405 0 -130 24 -193 107 -276
91 -91 143 -109 316 -109 118 0 141 3 183 22 l47 22 0 85 c0 47 -2 86 -4 86
-2 0 -30 -12 -62 -27 -78 -37 -206 -39 -269 -6 -105 55 -150 171 -115 292 38
134 182 194 336 140 97 -34 99 -33 102 36 2 32 1 69 -2 81 -14 54 -231 91
-344 59z"/>
<path d="M8995 4580 c-27 -5 -75 -18 -105 -28 l-55 -19 -3 -78 c-2 -43 -1 -84
2 -91 4 -10 22 -5 68 18 51 26 78 33 146 36 131 7 184 -27 195 -127 l5 -43
-73 7 c-96 9 -227 -10 -292 -41 -190 -92 -174 -353 26 -422 89 -31 253 -4 319
53 26 23 26 23 37 2 5 -11 22 -29 36 -39 27 -21 121 -35 163 -24 25 6 26 9 26
76 0 67 -1 70 -24 70 -13 0 -27 7 -30 16 -3 9 -6 107 -6 218 0 162 -3 212 -17
251 -21 63 -85 127 -149 149 -58 20 -199 29 -269 16z m248 -519 c0 -59 -3 -67
-31 -92 -40 -36 -130 -56 -183 -40 -47 14 -79 53 -79 96 0 73 66 106 204 102
l89 -2 0 -64z"/>
<path d="M8432 4558 c-9 -9 -12 -108 -12 -384 0 -330 2 -373 16 -378 29 -11
160 -6 172 6 9 9 12 107 12 378 0 271 -3 369 -12 378 -16 16 -160 16 -176 0z"/>
<path d="M2413 4535 c-143 -31 -282 -133 -346 -252 -46 -86 -69 -239 -51 -333
l7 -32 53 6 c213 25 376 170 420 375 14 68 18 189 8 229 -7 25 -7 25 -91 7z"/>
</g>
</svg>
